<svg width="145" height="284" viewBox="0 0 145 284" fill="none" xmlns="http://www.w3.org/2000/svg">
<path d="M11 267.837L19.6127 270.337L33 237.028L20.2886 233.337L11 267.837Z" fill="#FFB8B8"/>
<path d="M34.4286 283.337L6.33514 275.483L9.3698 264.628L27.6953 269.752C30.2859 270.476 32.4827 272.2 33.8024 274.544C35.1221 276.888 35.4566 279.66 34.7323 282.251L34.4286 283.337Z" fill="#2F2E41"/>
<path d="M117.003 274.337L126.489 274.336L131 239.337L117 239.338L117.003 274.337Z" fill="#FFB8B8"/>
<path d="M144.381 283.334L115.21 283.337L115.209 272.067L134.237 272.065C135.569 272.065 136.888 272.327 138.119 272.837C139.349 273.346 140.468 274.093 141.409 275.035C142.351 275.977 143.099 277.095 143.608 278.325C144.118 279.556 144.381 280.875 144.381 282.206L144.381 283.334V283.334Z" fill="#2F2E41"/>
<path d="M48.2795 126.337L27 178.721L113.892 198.337L115 169.029L75.5441 126.799L48.2795 126.337Z" fill="#B3B3B3"/>
<path d="M95.5556 44.5589C105.219 39.2764 108.77 27.1604 103.488 17.4971C98.2055 7.8337 86.0895 4.28229 76.4261 9.56476C66.7628 14.8472 63.2114 26.9632 68.4938 36.6266C73.7763 46.2899 85.8923 49.8413 95.5556 44.5589Z" fill="#FFB8B8"/>
<path d="M100.567 123.337L60.8442 107.187L57.3075 84.0253C56.266 77.2552 57.8924 70.3469 61.8484 64.7374C65.8044 59.128 71.7854 55.2491 78.5474 53.9078L83.8015 52.8598C88.1177 52.0015 92.5797 52.2027 96.7999 53.4459C101.02 54.6891 104.871 56.9367 108.018 59.9936C111.101 62.919 113.406 66.5571 114.728 70.5831C116.05 74.609 116.347 78.8974 115.594 83.0654C115 86.6368 113.542 90.0114 111.344 92.8989C98.8654 109.106 100.467 122.58 100.485 122.714L100.567 123.337Z" fill="#F9D423"/>
<path d="M116.28 183.337L96.3892 151.994L102.654 94.9787L94 52.3372L94.46 52.3485C99.4936 52.4716 104.287 54.5084 107.846 58.0369C111.406 61.5654 113.459 66.3153 113.581 71.3028L122 113.088L116.28 183.337Z" fill="#2F2E41"/>
<path d="M116.857 268.337C116.021 268.336 115.211 268.046 114.565 267.514C113.918 266.983 113.475 266.243 113.31 265.421L104.621 222.085C103.034 214.146 100.046 206.554 95.7965 199.669L71.2794 159.89C71.1574 159.693 70.9833 159.532 70.7764 159.427C70.5694 159.322 70.3375 159.276 70.1063 159.295C69.875 159.313 69.6533 159.395 69.4656 159.532C69.2779 159.669 69.1314 159.855 69.0423 160.07L28.7339 257.191C28.4099 257.967 27.8276 258.607 27.0863 259.001C26.3449 259.395 25.4902 259.52 24.6677 259.353L13.8998 257.151C12.9773 256.967 12.1633 256.428 11.6315 255.649C11.0997 254.871 10.8922 253.915 11.0533 252.986L19.8374 201.062C21.6293 190.479 24.6825 180.15 28.9314 170.297L58.6806 101.337L102.583 115.799L105.48 146.632L125.765 195.898C127.167 199.3 128.005 202.909 128.246 206.583L131.993 263.521C132.051 264.471 131.737 265.406 131.117 266.127C130.497 266.848 129.621 267.298 128.675 267.38L117.155 268.325C117.055 268.333 116.956 268.337 116.857 268.337Z" fill="#2F2E41"/>
<path d="M36.962 197.337L23 184.166L49.3862 83.0412C51.0602 76.6831 54.199 70.799 58.5544 65.8538C62.9098 60.9085 68.3625 57.0376 74.4819 54.5468L75 54.3372L73.5901 115.884L36.962 197.337Z" fill="#2F2E41"/>
<path d="M81.4696 47.261C76.5903 42.9378 75.1063 34.8731 78.0961 28.9274C81.0858 22.9818 88.2347 19.7811 94.3475 21.6513C100.105 23.4127 106.65 17.5374 105.948 11.2373C105.247 4.9373 97.5909 0.833447 92.3782 3.96329C88.4305 2.3415 84.1092 1.92158 79.9339 2.75402C75.7586 3.58645 71.907 5.63579 68.8425 8.65561C62.7183 14.797 60.3949 24.8366 63.1443 33.2789C65.8937 41.7211 73.5681 48.1126 81.4696 47.261Z" fill="#2F2E41"/>
<path d="M63.7115 208.714C63.4679 208.807 63.2143 208.872 62.9558 208.907L31.2208 213.303C30.4531 213.412 29.6708 213.259 29.0027 212.868C28.3346 212.477 27.8204 211.872 27.5447 211.153L0.228373 140.625C0.0514879 140.169 -0.0241169 139.68 0.00671363 139.192C0.0375442 138.703 0.174081 138.227 0.407026 137.796C0.63997 137.365 0.963842 136.989 1.35658 136.693C1.74931 136.398 2.20168 136.189 2.68285 136.083L2.68301 136.083L32.5265 129.475C32.7568 129.423 32.9795 129.343 33.1889 129.234L62.2159 114.176C62.4401 114.059 62.6768 113.968 62.9215 113.903L94.8659 105.453C95.684 105.235 96.5545 105.326 97.3091 105.708C98.0637 106.09 98.6487 106.736 98.9512 107.521L122.769 169.017C122.979 169.552 123.047 170.132 122.968 170.701C122.889 171.27 122.666 171.81 122.319 172.27L114.082 183.246C113.694 183.763 113.167 184.159 112.561 184.39L94.5589 191.255C94.4299 191.304 94.3048 191.363 94.1849 191.431L64.1874 208.49C64.0348 208.577 63.8757 208.652 63.7115 208.714V208.714Z" fill="white"/>
<path d="M78.934 114.609L74.874 115.687L64.1152 118.545L64.096 118.55L49.3663 126.22L43.8999 129.067L43.8974 129.068L35.6875 133.343L35.4624 133.393L26.9337 135.287L22.8118 136.205L6 139.941L32.3924 208.337L49.7168 205.929L53.9646 205.338L63.0185 204.078L63.1236 204.064L92.2169 187.458L109.918 180.683L118 169.874L95.0259 110.337L78.934 114.609Z" fill="#E6E6E6"/>
<path d="M98.4929 120.041L11.1248 153.617L12.6209 157.51L99.9891 123.934L98.4929 120.041Z" fill="white"/>
<path d="M103.48 133.018L16.1119 166.594L17.6081 170.487L104.976 136.911L103.48 133.018Z" fill="white"/>
<path d="M113.554 159.232L26.1863 192.808L27.6825 196.701L115.051 163.125L113.554 159.232Z" fill="white"/>
<path d="M79.0247 114.337L105 182.831L101.134 184.337L75 115.425L79.0247 114.337Z" fill="white"/>
<path d="M49 126.337L43.5792 141.208L41.6995 146.366L37.3148 158.402L36.3753 160.975L35.4351 163.56L34.197 166.954L25.3103 191.337L23 185.41L30.2459 165.526L31.8852 161.025L32.1256 160.368L34.0643 155.045L36.5103 148.332L38.39 143.173L43.49 129.178L43.4922 129.177L49 126.337Z" fill="white"/>
<path opacity="0.1" d="M93 187.382L92.3587 187.626L62.9559 204.324L62.8494 204.337L35 133.266L35.2278 133.216L43.5252 128.918L43.5274 128.917L49.0523 126.054L63.939 118.342L63.9582 118.337L93 187.382Z" fill="black"/>
<path d="M63.8285 209.635C63.5605 209.739 63.2817 209.812 62.9974 209.852L31.4499 214.299C30.6054 214.421 29.7449 214.249 29.0099 213.812C28.275 213.374 27.7093 212.697 27.406 211.892L0.251149 140.538C0.0565949 140.027 -0.0265387 139.479 0.00739409 138.932C0.0413269 138.386 0.191526 137.853 0.447781 137.37C0.704036 136.888 1.06033 136.467 1.49235 136.135C1.92438 135.804 2.42198 135.571 2.95129 135.452L32.6183 128.766C32.8163 128.721 33.0077 128.651 33.1877 128.556L62.0431 113.321C62.2897 113.191 62.55 113.088 62.819 113.016L94.5751 104.467C95.475 104.223 96.4326 104.325 97.2627 104.752C98.0927 105.18 98.7363 105.903 99.069 106.782L122.746 168.998C122.977 169.598 123.052 170.247 122.965 170.884C122.878 171.522 122.633 172.126 122.251 172.641L114.062 183.745C113.636 184.324 113.056 184.768 112.389 185.026L94.4939 191.971C94.3829 192.014 94.2753 192.066 94.1721 192.125L64.3522 209.384C64.1843 209.481 64.0092 209.565 63.8285 209.635V209.635ZM2.94066 136.985C2.3667 137.208 1.90395 137.652 1.65411 138.219C1.40427 138.787 1.3878 139.431 1.60834 140.011L28.7632 211.365C28.9496 211.86 29.2973 212.276 29.7491 212.545C30.2009 212.814 30.7298 212.92 31.249 212.845L62.7965 208.398C63.0897 208.356 63.3724 208.258 63.6294 208.11L93.4495 190.851C93.6172 190.754 93.7919 190.671 93.9722 190.601L111.868 183.656C112.277 183.497 112.634 183.224 112.896 182.868L121.085 171.764C121.319 171.448 121.47 171.076 121.524 170.684C121.577 170.293 121.531 169.894 121.389 169.525L97.7119 107.309C97.5074 106.768 97.1118 106.324 96.6016 106.061C96.0914 105.798 95.5028 105.736 94.9496 105.886L63.1939 114.435C63.0288 114.48 62.869 114.543 62.7172 114.622L33.8614 129.857C33.5686 130.011 33.2573 130.126 32.9354 130.2L3.26812 136.885C3.15667 136.91 3.04721 136.943 2.94066 136.985Z" fill="#E6E6E6"/>
<path d="M27.102 135.337L54 205.743L49.7735 206.337L23 136.26L27.102 135.337Z" fill="white"/>
<path d="M34.5 163.337C35.3284 163.337 36 162.442 36 161.337C36 160.233 35.3284 159.337 34.5 159.337C33.6716 159.337 33 160.233 33 161.337C33 162.442 33.6716 163.337 34.5 163.337Z" fill="#3F3D56"/>
<path d="M103.5 165.337C104.328 165.337 105 164.442 105 163.337C105 162.233 104.328 161.337 103.5 161.337C102.672 161.337 102 162.233 102 163.337C102 164.442 102.672 165.337 103.5 165.337Z" fill="#F9D423"/>
<path d="M104.134 128.808C106.371 134.497 103.679 153.351 102.732 159.403C102.702 159.595 102.621 159.775 102.496 159.927C102.372 160.078 102.208 160.194 102.023 160.264C101.837 160.334 101.636 160.354 101.44 160.323C101.244 160.292 101.06 160.211 100.906 160.088C96.0558 156.214 81.1368 143.975 78.8997 138.286C78.2629 136.666 77.9587 134.94 78.0045 133.206C78.0503 131.472 78.4451 129.764 79.1664 128.179C79.8878 126.594 80.9215 125.163 82.2086 123.968C83.4957 122.774 85.0109 121.839 86.6678 121.216C88.3247 120.594 90.0908 120.297 91.8652 120.342C93.6397 120.386 95.3877 120.772 97.0096 121.477C98.6314 122.182 100.095 123.192 101.318 124.45C102.54 125.708 103.497 127.189 104.134 128.808V128.808Z" fill="#F9D423"/>
<path d="M92 140.337C95.866 140.337 99 137.203 99 133.337C99 129.471 95.866 126.337 92 126.337C88.134 126.337 85 129.471 85 133.337C85 137.203 88.134 140.337 92 140.337Z" fill="white"/>
<path d="M82.2842 117.719C82.5786 116.655 83.1063 115.669 83.8302 114.828C84.5541 113.987 85.4565 113.312 86.4739 112.852C87.4914 112.391 88.599 112.156 89.7189 112.162C90.8388 112.169 91.9436 112.416 92.9556 112.888L105.942 101.337L115 107.391L96.4284 123.45C95.51 125.07 94.0195 126.303 92.2393 126.914C90.4591 127.525 88.5128 127.473 86.7694 126.766C85.0259 126.06 83.6064 124.749 82.7797 123.081C81.953 121.414 81.7767 119.506 82.2842 117.719V117.719Z" fill="#FFB8B8"/>
<path d="M103.084 121.337L93 107.633L115.989 92.8988L99.5119 69.3536C98.1656 67.4299 97.5753 65.0764 97.8542 62.7439C98.133 60.4115 99.2613 58.264 101.023 56.7128C102.785 55.1617 105.056 54.3159 107.402 54.3376C109.747 54.3592 112.002 55.2467 113.735 56.83L134.366 75.6799C136.331 77.4754 137.856 79.701 138.822 82.1833C139.787 84.6656 140.167 87.3376 139.933 89.9912C139.698 92.6448 138.855 95.2083 137.469 97.4821C136.083 99.7559 134.191 101.678 131.941 103.1L103.084 121.337Z" fill="#2F2E41"/>
<path d="M24.1781 157.925C25.1018 157.282 25.8737 156.444 26.4396 155.469C27.0054 154.495 27.3514 153.408 27.4532 152.284C27.555 151.161 27.4101 150.029 27.0287 148.968C26.6473 147.907 26.0387 146.943 25.2458 146.143L32 129.868L23.1436 123.337L13.927 146.456C12.6768 147.882 11.9912 149.718 12.0001 151.617C12.009 153.516 12.7118 155.345 13.9754 156.759C15.239 158.173 16.9755 159.072 18.856 159.287C20.7364 159.502 22.6301 159.018 24.1781 157.925V157.925Z" fill="#FFB8B8"/>
<path d="M28.7935 141.337L13 137.629L24.7693 103.417C26.7975 97.5138 29.7896 91.9936 33.6221 87.0844L52.8228 62.4709C54.5788 60.2195 57.1484 58.7614 59.9687 58.4161C62.789 58.0709 65.6301 58.8665 67.8696 60.6287C70.1092 62.391 71.5646 64.9762 71.917 67.8181C72.2695 70.6599 71.4902 73.5268 69.75 75.7906L48.4443 103.511L28.7935 141.337Z" fill="#2F2E41"/>
</svg>
