<svg width="514" height="514" viewBox="0 0 514 514" fill="none" xmlns="http://www.w3.org/2000/svg">
<circle cx="257" cy="257" r="257" fill="#FEE0E0" fill-opacity="0.06"/>
<circle cx="257" cy="257" r="212" fill="#F94D4D" fill-opacity="0.39"/>
<path d="M81.0278 341.565L209.241 121.274L209.749 120.473C215.077 111.847 222.269 104.507 230.804 98.9842C238.891 93.8292 248.285 91.0606 257.892 91C267.548 90.988 277 93.7616 285.1 98.9842C293.6 104.525 300.744 111.888 306.006 120.532C306.384 121.166 306.743 121.789 307.081 122.402L433.204 340.081L433.921 341.387C438.64 350.775 441.065 361.137 440.999 371.631C440.937 380.299 438.71 388.815 434.518 396.415C429.801 404.897 422.576 411.735 413.821 416.004C413.253 416.301 412.656 416.538 412.089 416.776C403.517 420.483 394.225 422.257 384.881 421.97H126.603C125.946 421.97 125.289 421.97 124.662 421.97C118.336 421.92 112.068 420.764 106.145 418.557C96.7259 415.011 88.634 408.669 82.9691 400.392C77.2628 391.993 74.1487 382.121 74.0094 371.988C73.8619 363.12 75.4546 354.309 78.6983 346.047C79.2956 344.473 80.0669 342.97 80.9979 341.565H81.0278Z" fill="#F81118"/>
<path fill-rule="evenodd" clip-rule="evenodd" d="M92.8951 362.663L231.148 123.965C247.949 97.5638 274.561 96.8918 291.65 123.965L427.691 359.783C438.56 381.576 433.173 410.985 397.776 410.249H120.501C97.2235 410.825 82.2183 390.44 92.8951 362.663Z" fill="#F9D423"/>
<path d="M252.51 338.134C255.507 335.21 259.452 333.418 263.654 333.073C266.307 332.89 268.969 333.284 271.451 334.226C273.891 335.146 276.105 336.566 277.949 338.39C280.052 340.45 281.608 342.989 282.481 345.782C283.353 348.575 283.515 351.537 282.952 354.407C282.665 355.895 282.208 357.346 281.588 358.731C280.114 361.922 277.72 364.615 274.704 366.472C271.688 368.329 268.183 369.269 264.629 369.174C262.078 369.113 259.568 368.536 257.254 367.476C253.177 365.561 249.986 362.197 248.319 358.059C247.755 356.757 247.362 355.39 247.15 353.99C246.925 352.603 246.859 351.196 246.955 349.794V349.794C247.221 347.575 247.846 345.412 248.806 343.387C249.677 341.487 250.938 339.785 252.51 338.39V338.134ZM278.989 305.332C278.371 320.676 251.99 320.708 251.406 305.332C248.741 279.032 241.919 211.345 242.114 186.648C242.341 179.024 248.612 174.507 256.929 172.777C262.291 171.727 267.811 171.727 273.173 172.777C281.653 174.571 288.281 179.184 288.281 187V187.769L278.989 305.332Z" fill="white"/>
</svg>
